{
  "extensionsUsed": [
    "KHR_materials_transmission",
    "KHR_materials_clearcoat",
    "KHR_materials_ior",
    "KHR_materials_specular",
    "KHR_materials_emissive_strength",
    "KHR_texture_transform"
  ],
  "accessors": [
    {
      "bufferView": 0,
      "componentType": 5126,
      "count": 3210,
      "type": "VEC3",
      "max": [
        30.405369,
        30.413912,
        30.405369
      ],
      "min": [
        -30.405369,
        -30.413912,
        -30.405369
      ]
    },
    {
      "bufferView": 1,
      "componentType": 5125,
      "count": 15000,
      "type": "SCALAR",
      "max": [
        3209.0
      ],
      "min": [
        0.0
      ]
    },
    {
      "bufferView": 2,
      "componentType": 5126,
      "count": 3210,
      "type": "VEC3",
      "max": [
        1.0,
        1.0,
        1.0
      ],
      "min": [
        -1.0,
        -1.0,
        -1.0
      ]
    },
    {
      "bufferView": 3,
      "componentType": 5126,
      "count": 3210,
      "type": "VEC2",
      "max": [
        1.0,
        -0.0
      ],
      "min": [
        -0.009197383,
        -1.0
      ]
    }
  ],
  "asset": {
    "version": "2.0"
  },
  "buffers": [
    {
      "uri": "data:application/octet-stream;base64,",
      "byteLength": 38520
    },
    {
      "uri": "data:application/octet-stream;base64,",
      "byteLength": 60000
    },
    {
      "uri": "data:application/octet-stream;base64,",
      "byteLength": 38520
    },
    {
      "uri": "data:application/octet-stream;base64,",
      "byteLength": 25680
    }
  ],
  "bufferViews": [
    {
      "buffer": 0,
      "byteLength": 38520,
      "target": 34962
    },
    {
      "buffer": 1,
      "byteLength": 60000,
      "target": 34963
    },
    {
      "buffer": 2,
      "byteLength": 38520,
      "target": 34962
    },
    {
      "buffer": 3,
      "byteLength": 25680,
      "target": 34962
    }
  ],
  "materials": [
    {
      "name": "Physically Based",
      "extensions": {
        "KHR_materials_transmission": {},
        "KHR_materials_clearcoat": {},
        "KHR_materials_ior": {
          "ior": 1.52
        },
        "KHR_materials_specular": {
          "specularFactor": 0.5,
          "specularColorFactor": [
            1.0,
            1.0,
            1.0
          ]
        }
      },
      "pbrMetallicRoughness": {
        "baseColorFactor": [
          0.7817507,
          0.7817507,
          0.7817507,
          1.0
        ],
        "metallicFactor": 0.0,
        "roughnessFactor": 0.67
      },
      "doubleSided": true
    }
  ],
  "meshes": [
    {
      "primitives": [
        {
          "attributes": {
            "POSITION": 0,
            "NORMAL": 2,
            "TEXCOORD_0": 3
          },
          "indices": 1,
          "material": 0
        }
      ]
    }
  ],
  "nodes": [
    {
      "mesh": 0
    }
  ],
  "samplers": [
    {
      "magFilter": 9729,
      "minFilter": 9729
    }
  ],
  "scene": 0,
  "scenes": [
    {
      "nodes": [
        0
      ],
      "extensions": {}
    }
  ],
  "extensions": {}
}